inDegrees=yes
name=ik_S51_A07_T01
DataType=double
version=3
OpenSimVersion=4.3-2021-08-27-4bc7ad9
endheader
time	pelvis_tilt	pelvis_list	pelvis_rotation	pelvis_tx	pelvis_ty	pelvis_tz	hip_flexion_r	hip_adduction_r	hip_rotation_r	knee_angle_r	knee_angle_r_beta	ankle_angle_r	subtalar_angle_r	mtp_angle_r	hip_flexion_l	hip_adduction_l	hip_rotation_l	knee_angle_l	knee_angle_l_beta	ankle_angle_l	subtalar_angle_l	mtp_angle_l	lumbar_extension	lumbar_bending	lumbar_rotation	arm_flex_r	arm_add_r	arm_rot_r	elbow_flex_r	pro_sup_r	wrist_flex_r	wrist_dev_r	arm_flex_l	arm_add_l	arm_rot_l	elbow_flex_l	pro_sup_l	wrist_flex_l	wrist_dev_l
0	0	0	0	0	0.9399999999999999	0	0	0	0	0	0	0	0	0	0	0	0	0	0	0	0	0	0	0	0	0	0	0	0	89.99999999963507	0	0	0	0	0	0	89.99999999869995	0	0
0.02	-2.584803422344828	0.4222195205099611	25.42422556190511	0	0.9399999999999999	0	2.937089750649804	-1.374470420975077	-0.9882044566054329	4.526911732564348	0.07900951468040887	0	0	0	2.937089750649804	-1.374470420975077	-0.9882044566054329	4.526911732564348	0.07900951468040887	0	0	0	-0.5091011984193752	-0.3169215791118202	6.887201516091133	17.03075835712966	-20.41730981523821	-6.732957431811015	51.50692864852248	112.5435739341821	0	0	30.56738303165539	-1.415179356348765	-12.48039629261549	26.16990857984516	129.7366602845766	0	0
0.04	-2.813834747284647	-1.60248801607852	27.4486726304338	0	0.9399999999999999	0	46.83878507142298	-10.97705444412388	-11.15829207968395	52.36566875015779	0.9139533346989572	0	0	0	46.83878507142298	-10.97705444412388	-11.15829207968395	52.36566875015779	0.9139533346989572	0	0	0	0.6408148410085465	1.393395539834539	4.862441481552813	17.0072086001788	-20.42679392984376	-6.747968823652434	51.5074458778974	112.5292461177434	0	0	30.52505566280506	-1.432817783326724	-12.46078606038025	26.23191813237113	129.6956538616664	0	0
0.06	-2.812890267382086	-1.605573108207268	27.44868392403396	0	0.9399999999999999	0	46.83674819562265	-10.97371579939363	-11.1556128158705	52.36766162301394	0.9139881168918708	0	0	0	46.83674819562265	-10.97371579939363	-11.1556128158705	52.36766162301394	0.9139881168918708	0	0	0	0.6372227299853984	1.389026860247465	4.858507660485803	17.00912496691674	-20.42591580773942	-6.747315411763131	51.52787897048138	112.516554835405	0	0	30.5296103538157	-1.436621362965425	-12.46736100722173	26.27930880455439	129.6667590813232	0	0
0.08	-2.808580957411313	-1.586905536137371	27.44347349884751	0	0.9399999999999999	0	46.83878834696803	-10.97659703195144	-11.15811703038287	52.36563485609184	0.9139527431359096	0	0	0	46.83878834696803	-10.97659703195144	-11.15811703038287	52.36563485609184	0.9139527431359096	0	0	0	0.6527641027227274	1.404812220438669	4.862908592906206	16.99790106729909	-20.43688694236068	-6.739530129744892	51.47923712383241	112.568217616714	0	0	30.50648037112254	-1.419594887198906	-12.46440831130149	26.20693719437744	129.7169035259082	0	0
0.1	-2.812586386868574	-1.587102103057052	27.44388519294649	0	0.9399999999999999	0	46.8357295975115	-10.97212529371675	-11.15435116676906	52.36869479755917	0.9140061491894328	0	0	0	46.8357295975115	-10.97212529371675	-11.15435116676906	52.36869479755917	0.9140061491894328	0	0	0	0.6445734922716421	1.404506227552642	4.861247638820938	17.00030116118082	-20.44532634372925	-6.73731690032882	51.50515120768385	112.5431435978138	0	0	30.5006000874762	-1.430623860800244	-12.46615637372273	26.27315896395537	129.6703478492225	0	0
0.12	-2.805183770587671	-1.57804445592139	27.42762863721289	0	0.9399999999999999	0	46.8374143088544	-10.97432586210219	-11.15634682033835	52.36700432995568	0.9139766449638536	0	0	0	46.8374143088544	-10.97432586210219	-11.15634682033835	52.36700432995568	0.9139766449638536	0	0	0	0.6579294477060746	1.410139427224759	4.865642918386713	16.99596210014869	-20.43077289827267	-6.734006432596772	51.46332926013644	112.5866631234102	0	0	30.48052400977199	-1.400107588213517	-12.4564715515134	26.20614800910188	129.7215786872069	0	0
0.14	-2.800331565498796	-1.571412286150836	27.41923679058048	0	0.9399999999999999	0	46.83813344089013	-10.97427806858227	-11.15676694957323	52.36618659619975	0.9139623728174079	0	0	0	46.83813344089013	-10.97427806858227	-11.15676694957323	52.36618659619975	0.9139623728174079	0	0	0	0.6665395013109271	1.41428022681291	4.867431932894981	17.0013930351619	-20.43551326097909	-6.754993069127323	51.4325606736251	112.6218216484499	0	0	30.46717110065916	-1.40966236408001	-12.46121789210799	26.18107382035847	129.7441582920135	0	0
0.16	-2.798576713988769	-1.572723464031283	27.42486191653574	0	0.9399999999999999	0	46.83438916358661	-10.96935896651106	-11.15240357948307	52.36999015158744	0.9140287573822052	0	0	0	46.83438916358661	-10.96935896651106	-11.15240357948307	52.36999015158744	0.9140287573822052	0	0	0	0.6617041517007805	1.410089379767651	4.861866673838811	17.0046370357181	-20.42630310694873	-6.744457025944394	51.46000061110218	112.6072005266464	0	0	30.47046722892333	-1.416073105146291	-12.45076821822112	26.2422236001074	129.6916179356257	0	0
0.18	-2.798196014166548	-1.569520178135323	27.41932573178157	0	0.9399999999999999	0	46.83471720948815	-10.96944703286404	-11.15265422105113	52.36963763648	0.9140226048329173	0	0	0	46.83471720948815	-10.96944703286404	-11.15265422105113	52.36963763648	0.9140226048329173	0	0	0	0.6640991230101133	1.412970605676923	4.864126048646463	17.004137092816	-20.43251721226031	-6.759031981596585	51.44397537108293	112.6244082442282	0	0	30.47731205944566	-1.424949727886757	-12.45883242305945	26.2304963628795	129.7106891650433	0	0
0.2	-2.79739455549231	-1.559508439259907	27.41147798196293	0	0.9399999999999999	0	46.8351734194638	-10.97057333310265	-11.15342757798869	52.36924166184343	0.9140156937717546	0	0	0	46.8351734194638	-10.97057333310265	-11.15342757798869	52.36924166184343	0.9140156937717546	0	0	0	0.6702845766890319	1.421681430316099	4.874565695313252	17.00242314865497	-20.42532206369081	-6.785073173579197	51.37903695889885	112.6807863574992	0	0	30.47541585465237	-1.401170323346117	-12.4779596655617	26.17291916013011	129.7599639235087	0	0
0.22	-2.800998556530978	-1.564918049248923	27.41195195933545	0	0.9399999999999999	0	46.83316783331444	-10.96646728326101	-11.15043920466313	52.3711332525616	0.9140487082578869	0	0	0	46.83316783331444	-10.96646728326101	-11.15043920466313	52.3711332525616	0.9140487082578869	0	0	0	0.6617690173515095	1.417414487159238	4.874113633860865	17.01824187778208	-20.42470481841958	-6.779119912062086	51.39393280453849	112.670891408464	0	0	30.47625949511322	-1.400167926329556	-12.46438852770199	26.23463151013064	129.7253068034561	0	0
0.24	-2.805167564574983	-1.566077695694251	27.40818155087756	0	0.9399999999999999	0	46.83194203638284	-10.9637488612016	-11.14852778455502	52.37227167420849	0.9140685774639011	0	0	0	46.83194203638284	-10.9637488612016	-11.14852778455502	52.37227167420849	0.9140685774639011	0	0	0	0.6557985080373072	1.417641390730348	4.872309722527286	17.03019799606069	-20.42694120604102	-6.77530638864983	51.39477549654436	112.6718719950468	0	0	30.46966768531601	-1.397913119707917	-12.44584300345215	26.2607500990972	129.7092152579378	0	0
0.26	-2.808867390688918	-1.564640303249666	27.40074508609902	0	0.9399999999999999	0	46.83233347872682	-10.96373131661762	-11.14877381402345	52.37183436057768	0.9140609449011796	0	0	0	46.83233347872682	-10.96373131661762	-11.14877381402345	52.37183436057768	0.9140609449011796	0	0	0	0.6538885404812751	1.420881311430353	4.875073097139445	17.04466418922042	-20.41979797074171	-6.789123710177011	51.36722529955917	112.6984534102456	0	0	30.47574167518811	-1.385803783343058	-12.43097501535946	26.21808231676616	129.7240958614486	0	0
